<svg width="40" height="40" viewBox="0 0 40 40" fill="none" xmlns="http://www.w3.org/2000/svg">
<g clip-path="url(#clip0_149_269)">
<path d="M40 21.3757C40 15.6646 37.4292 10.5538 33.3817 7.13755C30.14 4.40129 21.0326 4.08789 21.0326 4.08789L14.432 4.12596C14.3829 4.14672 14.3236 4.13232 14.2748 4.15348C7.80539 6.96089 3.60716 13.6127 3.60716 21.345C3.60716 31.6306 11.2758 38.6295 21.5614 38.6295C24.6537 38.6295 27.3849 39.2457 29.9515 37.912C35.9219 34.8097 40 28.5689 40 21.3757Z" fill="#94CCD4"/>
<path d="M33.3819 7.13747C31.4881 8.3761 29.4551 9.60507 28.693 9.77167C26.6012 10.3833 23.8785 9.08757 23.3191 12.1725C23.303 12.7681 23.2507 13.3338 23.1614 13.8618C23.0616 14.4509 22.8426 15.0055 22.5247 15.498C22.2068 15.9906 21.3607 16.1343 20.8682 16.4724C19.512 17.4043 18.4101 17.4602 16.9502 16.6996C16.9132 16.6803 16.8753 16.6602 16.8375 16.6401C14.4053 15.4481 12.9765 12.7069 15.498 10.7037C17.1552 9.33545 16.9045 6.92201 15.7464 5.41376L15.0494 4.60733C15.5905 4.38382 15.3702 3.73183 15.9355 3.55936C17.6567 3.03429 19.4835 2.75195 21.3762 2.75195C25.9509 2.75195 30.14 4.40105 33.3819 7.13747Z" fill="#B7E546"/>
<path d="M35.8202 16.7658C35.8098 15.2285 35.1891 13.7572 34.0943 12.6772C33.1603 11.6085 32.8373 10.9718 31.5536 12.1516C30.3368 13.6651 31.5369 15.5436 28.9508 18.1245C28.4927 18.5907 28.2357 19.229 28.2616 19.8832C28.2606 19.883 28.261 19.7676 28.2601 19.7675C28.3531 21.388 29.46 22.6943 31.0376 22.6943C33.0641 22.6942 35.8202 20.3153 35.8202 16.7658Z" fill="#B7E546"/>
<path d="M29.9895 18.0044C29.5316 18.4712 29.274 19.1094 29.2998 19.7637C29.299 19.7629 29.299 19.7621 29.2982 19.7621C29.3754 21.1038 30.5384 22.2329 31.8318 22.5822C31.5606 22.6563 31.2934 22.6941 31.0374 22.6941C29.46 22.6941 27.7819 21.383 27.6885 19.7621C27.6893 19.7621 27.6893 19.7629 27.6901 19.7637C27.6644 19.1094 27.9219 18.4712 28.3799 18.0044C30.9658 15.4241 29.4672 13.408 30.6841 11.8949C31.4173 11.2205 32.1215 11.2237 32.7638 11.5496C32.6084 11.6358 32.4523 11.7492 32.2938 11.8949C31.0769 13.408 32.5754 15.4241 29.9895 18.0044Z" fill="#ABD641"/>
<path d="M37.5697 1.40845V10.7047L36.9773 11.2671C36.9773 12.045 36.093 12.1622 35.315 12.1622L31.0632 12.1302C30.8654 12.1302 30.6725 12.1927 30.5124 12.3087L27.0037 14.745C26.6933 14.9699 26.2588 14.7481 26.2588 14.3648L26.5881 13.1931C26.5881 12.6744 26.1676 12.2541 25.6491 12.2541H24.5223C23.7445 12.2541 23.1138 11.6235 23.1138 10.8456L22.944 2.12475C22.944 1.34688 23.253 0.526439 24.0308 0.526439L24.4234 7.70331e-09H36.1611C36.9391 -8.04752e-05 37.5697 0.630503 37.5697 1.40845Z" fill="#DC4955"/>
<path d="M37.5697 10.7048V11.1743C37.5697 11.9522 36.9391 12.5829 36.1611 12.5829H31.1205C30.9223 12.5829 30.7298 12.6458 30.5702 12.7613L26.7643 15.5173C26.4545 15.7426 26.0197 15.521 26.0197 15.137V13.5219C26.0197 13.0032 25.5993 12.5829 25.0807 12.5829H23.9539C23.176 12.5829 22.5453 11.9523 22.5453 11.1743V1.40853C22.5453 0.630664 23.1759 0 23.9539 0H24.4234V10.517C24.4234 10.6208 24.5075 10.7048 24.6112 10.7048H25.0807C26.1615 10.7048 27.1018 11.3161 27.574 12.2118C27.6545 12.3645 27.8497 12.4127 27.9895 12.3114L29.4678 11.24C29.9514 10.8897 30.5232 10.7048 31.1204 10.7048H37.5697Z" fill="#D82F3C"/>
<path d="M25.8028 38.3728C15.2708 38.3728 6.7324 29.8593 6.7324 19.3579C6.7324 13.1036 9.59984 7.61989 14.2751 4.1543C7.5122 6.94585 2.75252 13.6054 2.75252 21.3764C2.75252 24.5432 3.54286 27.5253 4.93715 30.1363C4.93715 30.1363 9.36282 33.6414 11.6007 35.2884C14.6879 37.5604 20.6864 39.0259 20.6864 39.0259C20.6864 39.0259 27.361 39.2524 29.9204 37.9277C28.594 38.2191 27.2169 38.3728 25.8028 38.3728Z" fill="#6FBBC6"/>
<path d="M29.9505 37.9105C28.4539 35.826 25.7016 33.5281 25.8199 30.7604C25.8602 29.8168 25.7357 28.8701 25.425 27.9777C25.4201 27.9657 25.4162 27.9538 25.4122 27.9421C25.2551 27.5002 25.0192 27.0912 24.7253 26.7267C23.9142 25.7191 22.1834 23.0902 21.3371 22.7216C19.7211 21.7221 17.5333 22.4664 16.6687 24.1075C15.9183 26.0058 15.7113 28.6069 13.751 29.6308C12.5792 30.2663 10.8902 30.1235 9.99879 29.0713C8.45215 27.0624 6.28676 29.0048 4.939 30.1351C5.47453 31.1356 7.65956 31.869 8.3662 32.7564C11.2982 36.4394 13.9077 37.8591 18.2039 38.6301C22.2001 39.3552 26.3007 39.8062 29.907 37.9326C29.9214 37.925 29.936 37.9179 29.9505 37.9105Z" fill="#B7E546"/>
<path d="M29.9131 37.9281C26.7115 39.5938 23.0145 40.2732 19.4278 39.8967V39.8959C13.3659 39.3031 7.77151 35.5218 4.93924 30.1341C6.00483 29.2399 7.5831 27.8371 8.96177 28.2854C12.169 34.287 18.5079 38.3715 25.8028 38.3715C27.2145 38.3715 28.5891 38.2186 29.9131 37.9281Z" fill="#ABD641"/>
<path d="M34.0664 21.8049V31.1012L33.474 31.6636C33.474 32.4415 32.5897 32.5587 31.8117 32.5587L27.5599 32.5267C27.3621 32.5267 27.1693 32.5892 27.0091 32.7052L23.5004 35.1415C23.19 35.3664 22.7555 35.1446 22.7555 34.7613L23.0848 33.5896C23.0848 33.0709 22.6644 32.6506 22.1458 32.6506H21.019C20.2411 32.6506 19.6105 32.02 19.6105 31.242L19.4406 22.5212C19.4406 21.7434 19.7496 20.9229 20.5275 20.9229L20.9201 20.3965H32.6578C33.4357 20.3964 34.0664 21.0271 34.0664 21.8049Z" fill="#FFBF54"/>
<path d="M34.0664 31.1013V31.5708C34.0664 32.3488 33.4358 32.9793 32.6579 32.9793H27.6172C27.4191 32.9793 27.2266 33.0423 27.067 33.1578L23.2611 35.9137C22.9512 36.1391 22.5165 35.9175 22.5165 35.5335V33.9183C22.5165 33.3997 22.096 32.9793 21.5775 32.9793H20.4506C19.6728 32.9793 19.0421 32.3488 19.0421 31.5708V21.805C19.0421 21.0271 19.6727 20.3965 20.4506 20.3965H20.9202V30.9135C20.9202 31.0172 21.0043 31.1013 21.1079 31.1013H21.5775C22.6583 31.1013 23.5986 31.7125 24.0708 32.6083C24.1512 32.761 24.3464 32.8092 24.4862 32.7079L25.9645 31.6365C26.4481 31.2862 27.02 31.1013 27.6171 31.1013H34.0664Z" fill="#FFA442"/>
<path d="M33.7069 4.60679C34.0402 4.60679 34.3105 4.33653 34.3105 4.00317C34.3105 3.66981 34.0402 3.39955 33.7069 3.39955H30.5821V2.37315C30.5821 2.03979 30.3119 1.76953 29.9785 1.76953C29.6451 1.76953 29.3749 2.03979 29.3749 2.37315V3.39955H26.2501C25.9168 3.39955 25.6465 3.66981 25.6465 4.00317C25.6465 4.33653 25.9168 4.60679 26.2501 4.60679H27.5017C27.7915 5.89138 28.3648 7.07271 29.1632 8.07746C28.5523 8.66072 27.8375 9.14426 27.0405 9.49951L26.2088 9.87013C25.9043 10.0058 25.7675 10.3627 25.9032 10.6672C26.0033 10.8919 26.2238 11.0252 26.4549 11.0252C26.537 11.0252 26.6204 11.0084 26.7002 10.9728L27.5318 10.6022C28.4493 10.1934 29.2731 9.63826 29.9785 8.96897C30.6839 9.63826 31.5078 10.1934 32.4252 10.6022L33.2568 10.9728C33.3367 11.0084 33.42 11.0252 33.5021 11.0252C33.7332 11.0252 33.9537 10.8918 34.0538 10.6672C34.1895 10.3627 34.0527 10.0058 33.7482 9.87013L32.9165 9.49951C32.1194 9.14434 31.4047 8.66072 30.7938 8.07746C31.5922 7.07271 32.1654 5.89138 32.4552 4.60679H33.7069ZM29.9785 7.15754C29.4129 6.40205 28.9908 5.53879 28.7443 4.60679H31.2126C30.9661 5.53879 30.5441 6.40205 29.9785 7.15754Z" fill="#FAF8F8"/>
<path d="M31.1779 22.9785H28.3698C28.0365 22.9785 27.7662 23.2488 27.7662 23.5821C27.7662 23.9155 28.0365 24.1858 28.3698 24.1858H29.1702V26.0771H26.7692C26.9094 25.7915 26.9884 25.4705 26.9884 25.1314C26.9884 23.9443 26.0226 22.9785 24.8355 22.9785H23.0925C22.7592 22.9785 22.4889 23.2488 22.4889 23.5821C22.4889 23.9155 22.7592 24.1858 23.0925 24.1858H24.8355C25.3569 24.1858 25.7812 24.61 25.7812 25.1314C25.7812 25.6529 25.3569 26.0771 24.8355 26.0771H22.8988C22.5655 26.0771 22.2952 26.3474 22.2952 26.6807C22.2952 27.0141 22.5655 27.2844 22.8988 27.2844H24.8355C25.3569 27.2844 25.7812 27.7086 25.7812 28.23C25.7812 28.7603 25.3658 29.1757 24.8355 29.1757C24.0015 29.1757 23.0548 29.0817 22.3573 28.3842C22.1216 28.1485 21.7394 28.1485 21.5037 28.3842C21.268 28.62 21.268 29.0022 21.5037 29.2378C22.5187 30.2528 23.8175 30.3829 24.8355 30.3829C26.0226 30.3829 26.9884 29.4171 26.9884 28.23C26.9884 27.891 26.9094 27.57 26.7692 27.2844H29.1702V29.7793C29.1702 30.1127 29.4405 30.3829 29.7738 30.3829C30.1072 30.3829 30.3775 30.1127 30.3775 29.7793V24.1858H31.1779C31.5112 24.1858 31.7815 23.9155 31.7815 23.5821C31.7815 23.2488 31.5113 22.9785 31.1779 22.9785Z" fill="#FAF8F8"/>
<path d="M16.1095 11.7429L16.0861 11.7622C15.7754 12.0093 14.697 12.9968 13.9324 13.8435C13.6249 12.6821 13.8921 11.4491 15.0849 10.5019C16.742 9.13364 16.1304 6.46805 14.9722 4.9598L14.2748 4.15296C14.8156 3.92922 15.3698 3.73083 15.9356 3.55859C16.4362 4.31916 16.8813 4.9598 16.8813 4.9598C18.0813 7.19481 18.1352 10.0713 16.1095 11.7429Z" fill="#ABD641"/>
<path d="M22.5924 15.3894C22.5706 15.4264 22.5481 15.4626 22.5248 15.4989C22.2068 15.9914 21.7916 16.4212 21.299 16.7592C19.9429 17.6912 18.1843 17.7958 16.7244 17.0353C16.6873 17.016 16.6495 16.9958 16.6117 16.9757C14.3227 15.8538 12.7573 12.8864 14.6817 10.8711C14.0692 12.7206 15.5155 14.8558 17.4624 15.7685C17.5018 15.7886 17.5413 15.8087 17.5799 15.828C19.1058 16.5886 20.9441 16.484 22.3614 15.552C22.4402 15.5005 22.5175 15.4465 22.5924 15.3894Z" fill="#ABD641"/>
<path d="M19.2243 39.875C19.2295 39.8757 19.2346 39.8766 19.2398 39.8773C19.2346 39.8766 19.2295 39.8758 19.2243 39.875Z" fill="#94CCD4"/>
<path d="M13.4515 38.2324C13.4698 38.241 13.4882 38.2494 13.5065 38.2579C13.4881 38.2494 13.4698 38.241 13.4515 38.2324Z" fill="#94CCD4"/>
<path d="M29.9203 37.9277C29.5879 38.1 29.2507 38.2617 28.907 38.413C29.2451 38.2633 29.5783 38.1032 29.9066 37.9326C29.9091 37.9318 29.9107 37.9302 29.9131 37.9293C29.9155 37.9285 29.9179 37.9285 29.9203 37.9277Z" fill="#94CCD4"/>
<path d="M0.648132 11.0258L0.766281 19.1254C0.766281 19.9185 1.41256 20.5615 2.20982 20.5615L6.74141 20.7096C6.94415 20.7096 7.14173 20.7733 7.30592 20.8916L10.3986 23.5062C10.7168 23.7355 11.1621 23.5093 11.1621 23.1185L11.3575 21.8545C11.3575 21.3258 11.7883 20.8971 12.3198 20.8971L13.8155 20.8916C14.6128 20.8916 15.3978 20.7023 15.3978 19.9092V9.95176C15.3978 9.1586 14.7516 8.51562 13.9543 8.51562H1.44354C0.646281 8.51562 0.648132 10.2326 0.648132 11.0258Z" fill="#FAF8F8"/>
<path d="M8.40257 11.1939C8.4008 11.1893 8.39903 11.1847 8.39718 11.1801C8.27871 10.8907 8.00008 10.7034 7.68732 10.7031C7.687 10.7031 7.68684 10.7031 7.68652 10.7031C7.37416 10.7031 7.09545 10.8898 6.9765 11.1787C6.97424 11.1842 6.97207 11.1897 6.9699 11.1954L4.27477 18.3371C4.1571 18.649 4.31453 18.9973 4.6264 19.115C4.93835 19.2326 5.28668 19.0752 5.40427 18.7633L5.92813 17.3752H9.46495L9.99429 18.7651C10.086 19.006 10.3153 19.1541 10.5585 19.1541C10.6299 19.1541 10.7025 19.1413 10.7732 19.1144C11.0847 18.9958 11.241 18.647 11.1224 18.3355L8.40257 11.1939ZM6.38366 16.168L7.68837 12.7107L9.00515 16.168H6.38366Z" fill="#AAD8DE"/>
<path d="M15.398 19.7357V19.9096C15.398 20.7023 14.7517 21.3454 13.9541 21.3454H12.7992C12.268 21.3454 11.8374 21.7744 11.8374 22.3032V23.9506C11.8374 24.341 11.3915 24.5671 11.0736 24.3378L7.17425 21.5273C7.01006 21.409 6.81207 21.3454 6.60926 21.3454H1.44386C0.646278 21.3454 0 20.7023 0 19.9096V9.95224C0 9.15868 0.646278 8.51562 1.44386 8.51562H1.60966V19.3333C1.60966 19.5555 1.78986 19.7357 2.01207 19.7357H6.60926C7.1501 19.7357 7.67726 19.9064 8.11509 20.2219L9.91388 21.5184C10.0861 21.6424 10.326 21.5667 10.4032 21.3695C10.7783 20.4142 11.7111 19.7357 12.7992 19.7357H15.398Z" fill="#F0E9E6"/>
</g>
<defs>
<clipPath id="clip0_149_269">
<rect width="40" height="40" fill="white"/>
</clipPath>
</defs>
</svg>
